<svg width="400" height="400" xmlns="http://www.w3.org/2000/svg">
 <!-- Created with Method Draw - http://github.com/duopixel/Method-Draw/ -->
 <g>
  <title>background</title>
  <rect fill="none" id="canvas_background" height="402" width="402" y="-1" x="-1"/>
  <g display="none" overflow="visible" y="0" x="0" height="100%" width="100%" id="canvasGrid">
   <rect fill="url(#gridpattern)" stroke-width="0" y="0" x="0" height="100%" width="100%"/>
  </g>
 </g>
 <g>
  <title>Layer 1</title>
  <text font-weight="bold" font-style="italic" stroke="#000" transform="matrix(16.211631663259443,0,0,19.54412695696187,-5369.221698146142,-5396.577745272991) " xml:space="preserve" text-anchor="start" font-family="'Palatino Linotype', 'Book Antiqua', Palatino, serif" font-size="24" id="svg_1" y="295.476755" x="331.141998" stroke-width="0" fill="#000000">C</text>
  <path transform="rotate(7 316.1769104003906,109.70999526977539)" stroke="#000" id="svg_6" d="m267.631725,207.383943c-8.116035,-1.99363 -10.914689,-15.920821 -6.075936,-24.26473c6.421636,-12.904425 20.158135,-21.603638 30.920844,-13.461269c0.214474,-45.591145 0.090732,-91.184794 0.123515,-136.777061c26.83557,-7.211042 53.731814,-14.019529 80.576765,-21.170881c-0.058151,50.930049 -0.116277,101.860098 -0.174413,152.790147c-4.205773,15.404299 -17.795571,26.086242 -29.628838,21.309617c-7.04494,-2.864447 -8.733877,-15.216137 -4.810963,-22.784181c5.372048,-11.289178 15.370769,-19.040186 25.422703,-16.925603c2.868544,-0.394152 7.092692,5.914015 5.880248,-1.222137c-0.099577,-40.283453 0.247658,-80.577643 -0.256218,-120.852615c-4.379554,-2.208527 -12.168192,2.872823 -17.775714,3.283932c-18.751812,4.957146 -37.543713,9.651606 -56.252458,14.89852c0.564497,44.635475 0.301268,89.298276 0.217229,133.94319c0.993271,10.191206 -3.142066,19.791164 -9.42988,25.103628c-5.425914,5.361012 -12.129609,7.293574 -18.736877,6.129463l-0.000005,-0.00002z" fill-opacity="null" stroke-opacity="null" stroke-width="6" fill="#000000"/>
 </g>
</svg>